<svg width="48" height="48" viewBox="0 0 48 48" fill="none" xmlns="http://www.w3.org/2000/svg">
  <defs>
    <linearGradient id="bubble" x1="9" y1="9" x2="39" y2="39" gradientUnits="userSpaceOnUse">
      <stop stop-color="#0B9C67"/>
      <stop offset="1" stop-color="#16C78A"/>
    </linearGradient>
  </defs>

  <path
    d="M24.2 7.4C14.4 7.4 6.6 13.8 6.6 22.1C6.6 25.9 8.3 29.3 11.2 31.9C10.8 34.5 9.5 37.1 7.5 39.2C6.8 39.9 7.4 41.1 8.4 40.9C12.3 40.3 15.6 38.7 17.8 37.0C19.8 37.7 21.9 38.0 24.2 38.0C34.0 38.0 41.4 31.5 41.4 23.0C41.4 14.4 34.0 7.4 24.2 7.4Z"
    fill="url(#bubble)"
    stroke="#FFFFFF"
    stroke-opacity="0.62"
    stroke-width="0.9"
  />

  <circle cx="15.4" cy="23.0" r="2.55" fill="#A5F3FC" fill-opacity="0.88" stroke="#FFFFFF" stroke-opacity="0.85" stroke-width="0.75"/>
  <circle cx="24.0" cy="23.0" r="2.55" fill="#C4B5FD" fill-opacity="0.88" stroke="#FFFFFF" stroke-opacity="0.85" stroke-width="0.75"/>
  <circle cx="32.6" cy="23.0" r="2.55" fill="#FDA4AF" fill-opacity="0.88" stroke="#FFFFFF" stroke-opacity="0.85" stroke-width="0.75"/>
</svg>
